<!DOCTYPE svg PUBLIC "-//W3C//DTD SVG 1.1//EN" "http://www.w3.org/Graphics/SVG/1.1/DTD/svg11.dtd">
<!-- Uploaded to: SVG Repo, www.svgrepo.com, Transformed by: SVG Repo Mixer Tools -->
<svg width="139px" height="139px" viewBox="-102.4 -102.4 1228.80 1228.80" class="icon" version="1.1" xmlns="http://www.w3.org/2000/svg" fill="#763d6e" transform="rotate(-45)matrix(1, 0, 0, 1, 0, 0)" stroke="#763d6e">
<g id="SVGRepo_bgCarrier" stroke-width="0" transform="translate(0,0), scale(1)">
<rect x="-102.4" y="-102.4" width="1228.80" height="1228.80" rx="614.4" fill="#207a92" strokewidth="0"/>
</g>
<g id="SVGRepo_tracerCarrier" stroke-linecap="round" stroke-linejoin="round" stroke="#CCCCCC" stroke-width="10.24">
<path d="M209.11128 258.0742c20.523667-7.860128 148.469083 191.699787 299.121535 191.699787s267.681023-206.110021 283.837953-195.193177-65.501066 208.730064-54.147548 279.034542c20.523667 145.849041 118.338593 102.181663 127.072069 288.204691 3.49339 80.347974-74.671215 205.236674-364.185928 201.743283S158.893796 906.098081 158.893796 822.256716c0-151.089126 80.784648-131.002132 105.675053-289.951386 10.480171-66.374414-72.92452-262.440938-55.457569-274.23113z" fill="#5e9c2b"/>
<path d="M660.195289 596.496375H566.310427V134.058849a43.667377 43.667377 0 0 0 40.610661-43.667378V43.667377a43.667377 43.667377 0 0 0-43.667377-43.667377H458.888679a43.667377 43.667377 0 0 0-43.667378 43.667377v48.470789a43.667377 43.667377 0 0 0 40.610661 43.667378v460.690831h-87.334754a20.960341 20.960341 0 0 0-20.960341 20.960341v229.690406a20.960341 20.960341 0 0 0 20.960341 20.960341h292.134754a20.960341 20.960341 0 0 0 22.270363-20.960341v-229.690406a20.960341 20.960341 0 0 0-22.707036-20.960341z" fill="#e68ea3"/>
<path d="M423.518103 653.70064l189.953092 0 0 67.684435-189.953092 0 0-67.684435Z" fill="#b71f70"/>
<path d="M423.518103 755.882303l189.953092 0 0 67.684435-189.953092 0 0-67.684435Z" fill="#b71f70"/>
</g>
<g id="SVGRepo_iconCarrier">
<path d="M209.11128 258.0742c20.523667-7.860128 148.469083 191.699787 299.121535 191.699787s267.681023-206.110021 283.837953-195.193177-65.501066 208.730064-54.147548 279.034542c20.523667 145.849041 118.338593 102.181663 127.072069 288.204691 3.49339 80.347974-74.671215 205.236674-364.185928 201.743283S158.893796 906.098081 158.893796 822.256716c0-151.089126 80.784648-131.002132 105.675053-289.951386 10.480171-66.374414-72.92452-262.440938-55.457569-274.23113z" fill="#5e9c2b"/>
<path d="M660.195289 596.496375H566.310427V134.058849a43.667377 43.667377 0 0 0 40.610661-43.667378V43.667377a43.667377 43.667377 0 0 0-43.667377-43.667377H458.888679a43.667377 43.667377 0 0 0-43.667378 43.667377v48.470789a43.667377 43.667377 0 0 0 40.610661 43.667378v460.690831h-87.334754a20.960341 20.960341 0 0 0-20.960341 20.960341v229.690406a20.960341 20.960341 0 0 0 20.960341 20.960341h292.134754a20.960341 20.960341 0 0 0 22.270363-20.960341v-229.690406a20.960341 20.960341 0 0 0-22.707036-20.960341z" fill="#e68ea3"/>
<path d="M423.518103 653.70064l189.953092 0 0 67.684435-189.953092 0 0-67.684435Z" fill="#b71f70"/>
<path d="M423.518103 755.882303l189.953092 0 0 67.684435-189.953092 0 0-67.684435Z" fill="#b71f70"/>
</g>
</svg>